<svg width="220" height="100" xmlns="http://www.w3.org/2000/svg">
 <!-- Created with Method Draw - http://github.com/duopixel/Method-Draw/ -->
 <defs>
  <style type="text/css">/* latin-ext */
@font-face {
  font-family: 'Lato';
  font-style: normal;
  font-weight: 400;
  src: local('Lato Regular'), local('Lato-Regular'), url(https://fonts.gstatic.com/s/lato/v16/S6uyw4BMUTPHjxAwXjeu.woff2) format('woff2');
  unicode-range: U+0100-024F, U+0259, U+1E00-1EFF, U+2020, U+20A0-20AB, U+20AD-20CF, U+2113, U+2C60-2C7F, U+A720-A7FF;
}
/* latin */
@font-face {
  font-family: 'Lato';
  font-style: normal;
  font-weight: 400;
  src: local('Lato Regular'), local('Lato-Regular'), url(https://fonts.gstatic.com/s/lato/v16/S6uyw4BMUTPHjx4wXg.woff2) format('woff2');
  unicode-range: U+0000-00FF, U+0131, U+0152-0153, U+02BB-02BC, U+02C6, U+02DA, U+02DC, U+2000-206F, U+2074, U+20AC, U+2122, U+2191, U+2193, U+2212, U+2215, U+FEFF, U+FFFD;
}</style>
 </defs>
 <g>
  <title>background</title>
  <rect x="-1" y="-1" width="222" height="102" id="canvas_background" fill="none"/>
  <g id="canvasGrid" display="none">
   <rect id="svg_1" width="100%" height="100%" x="0" y="0" stroke-width="0" fill="url(#gridpattern)"/>
  </g>
 </g>
 <g>
  <title>Layer 1</title>
  <g stroke="null" id="svg_5">
   <path stroke="null" id="svg_2" fill="none" d="m6.666806,7.667013l83.499541,0l0,83.499541l-83.499541,0l0,-83.499541z"/>
   <path stroke="null" id="svg_3" d="m41.458281,65.072947l20.874885,-15.656164l-20.874885,-15.656164l0,31.312328zm6.958295,-50.447639c-19.204894,0 -34.791475,15.586581 -34.791475,34.791475s15.586581,34.791475 34.791475,34.791475s34.791475,-15.586581 34.791475,-34.791475s-15.586581,-34.791475 -34.791475,-34.791475zm0,62.624655c-15.343041,0 -27.83318,-12.49014 -27.83318,-27.83318s12.49014,-27.83318 27.83318,-27.83318s27.83318,12.49014 27.83318,27.83318s-12.49014,27.83318 -27.83318,27.83318z"/>
  </g>
  <text font-weight="bold" style="cursor: move;" xml:space="preserve" text-anchor="start" font-family="Lato" font-size="60" id="svg_4" y="64.682517" x="88.161699" stroke-width="0" stroke="#000" fill="#000000">spell</text>
 </g>
</svg>