<svg width="220" height="100" xmlns="http://www.w3.org/2000/svg">
 <!-- Created with Method Draw - http://github.com/duopixel/Method-Draw/ -->

 <g>
  <title>background</title>
  <rect x="-1" y="-1" width="222" height="102" id="canvas_background" fill="none"/>
  <g id="canvasGrid" display="none">
   <rect id="svg_1" width="100%" height="100%" x="0" y="0" stroke-width="0" fill="url(#gridpattern)"/>
  </g>
 </g>
 <g>
  <title>Layer 2</title>
  <text fill="#ffffff" stroke-width="0" stroke-opacity="null" x="42.47985" y="161.89324" id="svg_4" font-size="24" font-family="Helvetica, Arial, sans-serif" text-anchor="start" xml:space="preserve" transform="matrix(2.8307842189545345,0,0,2.8307842189545345,-106.0880222389687,-385.4437697269752) " stroke="null">s</text>
  <path d="m64.26199,63.02071l10.67553,-8.00665l-10.67553,-8.00665l0,16.0133zm3.55851,-25.7992c-9.82149,0 -17.79255,7.97106 -17.79255,17.79255s7.97106,17.79255 17.79255,17.79255s17.79255,-7.97106 17.79255,-17.79255s-7.97106,-17.79255 -17.79255,-17.79255zm0,32.0266c-7.84652,0 -14.23404,-6.38753 -14.23404,-14.23404s6.38753,-14.23404 14.23404,-14.23404s14.23404,6.38753 14.23404,14.23404s-6.38753,14.23404 -14.23404,14.23404z" id="svg_3" stroke-width="2" stroke="#000"/>
  <text fill="#000000" stroke-width="0" stroke-opacity="null" fill-opacity="null" x="52.05481" y="169.42357" id="svg_6" font-size="22" font-family="Helvetica, Arial, sans-serif" text-anchor="start" xml:space="preserve" transform="matrix(2.7120095721562025,0,0,2.5281213149023296,-95.80762414136416,-334.9059518162114) " stroke="null">l</text>
  <text fill="#ffffff" stroke-width="0" stroke-opacity="null" x="68.62101" y="161.89324" id="svg_2" font-size="24" font-family="Helvetica, Arial, sans-serif" text-anchor="start" xml:space="preserve" transform="matrix(2.8307842189545345,0,0,2.8307842189545345,-106.0880222389687,-385.4437697269752) " stroke="null">ell it</text>
 </g>
</svg>