<svg width="300" height="100" xmlns="http://www.w3.org/2000/svg">
 <!-- Created with Method Draw - http://github.com/duopixel/Method-Draw/ -->

 <g>
  <title>background</title>
  <rect fill="none" id="canvas_background" height="102" width="302" y="-1" x="-1"/>
 </g>
 <g>
  <title>Layer 1</title>
  <path stroke="null" id="svg_3" fill-rule="nonzero" d="m211.613261,72.467347c0.56275,0.69861 0.49782,1.735259 -0.173154,2.321191s-1.666614,0.518321 -2.229363,-0.180289c-6.839609,-8.315716 -10.367631,-17.735685 -10.281054,-27.268338c0.086577,-9.307292 3.571317,-18.659656 10.735586,-27.200727c0.56275,-0.676077 1.55839,-0.743682 2.229363,-0.15775c0.649332,0.585933 0.714262,1.622581 0.151512,2.321191c-6.644808,7.910072 -9.891458,16.541287 -9.956388,25.059824c-0.064936,8.743898 3.181715,17.397647 9.523504,25.104896l-0.000006,0zm8.268133,-8.000216c0.584397,0.676077 0.519461,1.71272 -0.129865,2.321191s-1.644967,0.54086 -2.229363,-0.135217c-5.259572,-6.197346 -7.965114,-12.75527 -7.85689,-19.403338c0.108224,-6.467779 2.857049,-12.958092 8.462934,-19.155444c0.606044,-0.653538 1.601678,-0.69861 2.229363,-0.067605s0.670974,1.667647 0.064936,2.321191c-5.04313,5.588881 -7.532224,11.312978 -7.618801,16.946931c-0.086577,5.814242 2.337588,11.628483 7.056051,17.194825l0.021647,-0.022533l-0.000012,0zm7.315782,-7.617105c0.541108,0.69861 0.454532,1.735259 -0.238089,2.298652c-0.670974,0.563394 -1.666614,0.473255 -2.207722,-0.247894c-2.835408,-3.628267 -4.30722,-7.572033 -4.328867,-11.583411c-0.021647,-3.898694 1.385236,-7.819927 4.263932,-11.493267c0.541108,-0.69861 1.536748,-0.811288 2.207722,-0.247894s0.779198,1.600042 0.238089,2.298652c-2.402523,3.064873 -3.571317,6.287491 -3.571317,9.419969c0,3.222623 1.255371,6.467779 3.614605,9.510114l0.021647,0.045072l0,0.000006zm33.591994,17.758224c-0.56275,0.69861 -1.55839,0.766215 -2.229363,0.180289s-0.735909,-1.622581 -0.173154,-2.321191c6.341789,-7.70725 9.610081,-16.383537 9.523504,-25.104896c-0.064936,-8.518537 -3.31158,-17.149752 -9.956388,-25.059824c-0.56275,-0.676077 -0.49782,-1.71272 0.151512,-2.321191c0.649332,-0.585933 1.644967,-0.518321 2.229363,0.15775c7.164275,8.541077 10.649009,17.893435 10.735586,27.200727c0.086577,9.532647 -3.441446,18.952622 -10.281054,27.268338l-0.000006,0zm-8.289774,-7.977677c-0.584397,0.676077 -1.580037,0.743682 -2.229363,0.135217s-0.714262,-1.645114 -0.129865,-2.321191c4.740105,-5.566347 7.142628,-11.380589 7.056051,-17.194825c-0.086577,-5.656492 -2.575677,-11.380589 -7.618801,-16.946931c-0.606044,-0.653538 -0.56275,-1.690186 0.064936,-2.321191s1.623325,-0.585933 2.229363,0.067605c5.605879,6.197346 8.35471,12.665126 8.462934,19.155444c0.108224,6.648068 -2.575677,13.205986 -7.85689,19.403338l0.021647,0.022533l-0.000012,0zm-7.229205,-7.729783c-0.541108,0.69861 -1.536748,0.811288 -2.207722,0.247894s-0.779198,-1.600042 -0.238089,-2.298652c2.380876,-3.042334 3.614605,-6.287491 3.614605,-9.510114c0,-3.155012 -1.147147,-6.355102 -3.571317,-9.419969c-0.541108,-0.69861 -0.454532,-1.735259 0.238089,-2.298652c0.670974,-0.563394 1.666614,-0.473255 2.207722,0.247894c2.878696,3.673339 4.285579,7.594572 4.263932,11.493267c-0.021647,4.011378 -1.49346,7.932605 -4.328867,11.583411l0.021647,-0.045072l0,-0.000006zm-8.679376,-5.588881l0,27.042977c0,0.901432 -0.714262,1.645114 -1.580037,1.645114s-1.580037,-0.743682 -1.580037,-1.645114l0,-27.042977c-0.99564,-0.292966 -1.904703,-0.833827 -2.618965,-1.577509c-1.082217,-1.126793 -1.731543,-2.659224 -1.731543,-4.371949s0.670974,-3.245156 1.731543,-4.371949c1.082217,-1.126793 2.55403,-1.802864 4.199002,-1.802864s3.116785,0.69861 4.199002,1.802864c1.082217,1.126793 1.731543,2.659224 1.731543,4.371949s-0.670974,3.245156 -1.731543,4.371949c-0.714262,0.743682 -1.623325,1.307076 -2.618965,1.600042l0,-0.022533z"/>
  <text xml:space="preserve" text-anchor="start" font-family="Helvetica, Arial, sans-serif" font-size="50" id="svg_4" y="54.85" x="6.5" stroke-width="0" stroke="#000" fill="#000000">Spelling</text>
  <text xml:space="preserve" text-anchor="start" font-family="Helvetica, Arial, sans-serif" font-size="24" id="svg_2" y="85.85" x="10.5" stroke-width="0" stroke="#000" fill="#000000">Homework</text>
 </g>
</svg>